<?xml version="1.0" encoding="UTF-8" standalone="no"?>
<!-- Created with Inkscape (http://www.inkscape.org/) -->

<svg
   width="338.28183mm"
   height="243.4865mm"
   viewBox="0 0 338.28183 243.48649"
   version="1.1"
   id="svg1"
   inkscape:version="1.3.2 (091e20e, 2023-11-25, custom)"
   sodipodi:docname="SVG Logo Master - Gold Copy 2-3-26.svg"
   xmlns:inkscape="http://www.inkscape.org/namespaces/inkscape"
   xmlns:sodipodi="http://sodipodi.sourceforge.net/DTD/sodipodi-0.dtd"
   xmlns="http://www.w3.org/2000/svg"
   xmlns:svg="http://www.w3.org/2000/svg">
  <sodipodi:namedview
     id="namedview1"
     pagecolor="#ffffff"
     bordercolor="#000000"
     borderopacity="0.25"
     inkscape:showpageshadow="2"
     inkscape:pageopacity="0.0"
     inkscape:pagecheckerboard="0"
     inkscape:deskcolor="#d1d1d1"
     inkscape:document-units="mm"
     inkscape:zoom="0.69219276"
     inkscape:cx="521.53102"
     inkscape:cy="431.23826"
     inkscape:window-width="2400"
     inkscape:window-height="1261"
     inkscape:window-x="-9"
     inkscape:window-y="-9"
     inkscape:window-maximized="1"
     inkscape:current-layer="layer1" />
  <defs
     id="defs1" />
  <g
     inkscape:label="Layer 1"
     inkscape:groupmode="layer"
     id="layer1"
     transform="translate(32.809483,-34.365414)">
    <g
       id="g17"
       transform="matrix(0.29730239,0,0,0.29730239,-199.60449,-711.016)">
      <path
         d="m 913.35008,2994.7297 v -280.58 l 201.20002,-166.71 1,-0.84 0.9,-0.78 0.3,-0.15 v -0.09 l 0.2,-0.11 0.3,-0.08 0.2,-0.08 0.3,-0.05 0.2,-0.04 0.3,-0.03 0.2,-0.01 0.3,0.01 v 0.01 l 0.3,0.04 0.4,0.05 0.3,0.08 0.2,0.12 v 0.11 l 0.3,0.18 0.2,0.19 0.5,0.32 0.3,0.31 207.3,171.7 v 276.43 z m -13.5,13.49 0.3,0.31 0.4,0.35 0.1,0.17 0.8,0.46 0.5,0.41 0.2,0.14 0.4,0.24 0.4,0.2 0.6,0.32 0.6,0.25 0.4,0.15 0.8,0.23 0.1,0.06 0.5,0.12 0.5,0.07 0.5,0.1 0.7,0.07 0.3,0.02 1,0.04 1.5,-0.02 h 422.80002 l 0.3,-0.01 0.7,-0.04 0.5,-0.05 0.5,-0.07 0.8,-0.16 0.2,-0.06 0.5,-0.14 0.7,-0.17 0.1,-0.08 0.5,-0.22 0.4,-0.11 0.5,-0.24 0.5,-0.26 0.1,-0.15 0.7,-0.34 0.5,-0.38 0.5,-0.4 0.2,-0.17 0.3,-0.37 0.3,-0.32 0.2,-0.21 0.5,-0.39 0.2,-0.32 0.3,-0.55 0.2,-0.24 0.5,-0.62 v -0.21 l 0.3,-0.56 0.2,-0.23 v -0.16 l 0.3,-0.73 0.3,-0.79 0.2,-0.26 0.2,-0.65 v -0.6 l 0.1,-0.66 0.2,-0.85 v -285.79 l -0.2,-0.61 -0.1,-0.55 v -0.32 l -0.2,-0.45 -0.2,-0.54 -0.1,-0.29 -0.2,-0.47 v -0.24 l -0.3,-0.42 -0.2,-0.52 -0.3,-0.32 -0.2,-0.44 -0.2,-0.17 -0.6,-0.96 -0.2,-0.23 -0.5,-0.39 -0.3,-0.4 -0.2,-0.18 -0.8,-0.6 -208.7,-172.92 -0.5,-0.46 -0.8,-0.52 -0.5,-0.47 -0.9,-0.55 -0.8,-0.51 -0.8,-0.48 -0.9,-0.48 -0.5,-0.22 -0.6,-0.24 -0.5,-0.22 -0.9,-0.24 -0.6,-0.22 -0.7,-0.15 -0.8,-0.17 -0.7,-0.12 -0.7,-0.1 -0.6,-0.09 -0.7,-0.05 -0.5,-0.03 -0.8,-0.01 -0.7,0.02 -0.8,0.03 -0.7,0.08 -0.8,0.08 -0.7,0.11 -0.7,0.14 -0.1,0.05 -0.9,0.19 -0.8,0.24 -0.3,0.1 -0.7,0.26 -1,0.38 -0.7,0.32 -0.3,0.11 -0.7,0.37 -0.5,0.32 -0.6,0.4 -0.9,0.56 -0.6,0.52 -0.2,0.17 -1.2,0.91 -1,0.89 -202.20002,167.48 -0.8,0.58 -0.5,0.46 -0.1,0.16 -0.5,0.44 -0.3,0.29 -0.3,0.44 -0.3,0.24 -0.4,0.57 -0.1,0.24 -0.6,0.96 -0.4,0.81 -0.1,0.21 -0.1,0.51 -0.2,0.41 -0.2,0.63 v 0.2 l -0.1,0.57 v 0.36 l -0.2,0.54 v 0.24 l -0.1,0.73 v 288.52 l 0.1,0.72 0.2,0.69 v 0.27 l 0.1,0.22 0.1,0.68 0.3,0.73 0.1,0.32 0.2,0.72 0.2,0.2 0.1,0.58 0.2,0.26 0.3,0.48 0.1,0.19 0.4,0.66 0.2,0.28 0.3,0.44 0.4,0.31 0.3,0.46 z"
         stroke="#000000"
         stroke-width="1"
         style="stroke-width:0.559"
         id="path1" />
      <g
         id="g3"
         transform="translate(3049.7501,-326.96027)">
        <path
           d="m -1785.3,3254.16 c 0,0 -2.9,-0.15 -2.9,-0.15 0,0 -4.1,-0.33 -4.1,-0.33 0,0 -3.7,-0.41 -3.7,-0.41 0,0 -3.3,-0.49 -3.3,-0.49 0,0 -1.5,-0.28 -1.5,-0.28 0,0 -1.2,-0.3 -1.2,-0.3 0,0 -1.3,-0.33 -1.3,-0.33 0,0 -1.2,-0.34 -1.2,-0.34 0,0 -1,-0.36 -1,-0.36 0,0 -0.8,-0.38 -0.8,-0.38 0,0 -0.9,-0.41 -0.9,-0.41 0,0 -0.6,-0.43 -0.6,-0.43 0,0 -0.5,-0.44 -0.5,-0.44 0,0 -0.5,-0.47 -0.5,-0.47 0,0 -0.5,-0.53 -0.5,-0.53 0,0 -0.2,-0.67 -0.2,-0.67 0,0 -0.5,-0.78 -0.5,-0.78 0,0 -0.3,-0.9 -0.3,-0.9 0,0 -0.2,-1.03 -0.2,-1.03 0,0 -0.3,-1.15 -0.3,-1.15 0,0 -0.2,-1.27 -0.2,-1.27 0,0 -0.3,-1.4 -0.3,-1.4 0,0 -0.2,-1.51 -0.2,-1.51 0,0 0,-1.64 0,-1.64 0,0 -0.3,-3.64 -0.3,-3.64 0,0 -0.2,-4.13 -0.2,-4.13 0,0 0,-4.62 0,-4.62 0,0 0,-138.61 0,-138.61 0,0 0,-4.63 0,-4.63 0,0 0.2,-4.13 0.2,-4.13 0,0 0.3,-3.65 0.3,-3.65 0,0 0,-1.63 0,-1.63 0,0 0.2,-1.52 0.2,-1.52 0,0 0.3,-1.39 0.3,-1.39 0,0 0.2,-1.26 0.2,-1.26 0,0 0.3,-1.14 0.3,-1.14 0,0 0.2,-1.03 0.2,-1.03 0,0 0.3,-0.89 0.3,-0.89 0,0 0.5,-0.78 0.5,-0.78 0,0 0.2,-0.65 0.2,-0.65 0,0 0.5,-0.53 0.5,-0.53 0,0 0.5,-0.45 0.5,-0.45 0,0 0.5,-0.44 0.5,-0.44 0,0 0.6,-0.41 0.6,-0.41 0,0 0.9,-0.4 0.9,-0.4 0,0 0.8,-0.37 0.8,-0.37 0,0 1,-0.36 1,-0.36 0,0 1.2,-0.34 1.2,-0.34 0,0 1.3,-0.31 1.3,-0.31 0,0 1.2,-0.29 1.2,-0.29 0,0 1.5,-0.28 1.5,-0.28 0,0 3.3,-0.49 3.3,-0.49 0,0 3.7,-0.4 3.7,-0.4 0,0 4.1,-0.33 4.1,-0.33 0,0 2.9,-0.28 2.9,-0.28 0,0 0,-8.94 0,-8.94 0,0 -83.7,0 -83.7,0 0,0 0,8.94 0,8.94 0,0 2.7,0.28 2.7,0.28 0,0 4.1,0.33 4.1,0.33 0,0 3.7,0.4 3.7,0.4 0,0 3.3,0.49 3.3,0.49 0,0 1.4,0.28 1.4,0.28 0,0 1.5,0.29 1.5,0.29 0,0 1.1,0.31 1.1,0.31 0,0 1.2,0.34 1.2,0.34 0,0 1,0.36 1,0.36 0,0 1,0.37 1,0.37 0,0 0.7,0.4 0.7,0.4 0,0 0.8,0.41 0.8,0.41 0,0 0.5,0.44 0.5,0.44 0,0 0.5,0.45 0.5,0.45 0,0 0.3,0.53 0.3,0.53 0,0 0.4,0.65 0.4,0.65 0,0 0.3,0.78 0.3,0.78 0,0 0.3,0.89 0.3,0.89 0,0 0.4,1.03 0.4,1.03 0,0 0.3,1.14 0.3,1.14 0,0 0.2,1.26 0.2,1.26 0,0 0.3,1.39 0.3,1.39 0,0 0.2,1.52 0.2,1.52 0,0 0,1.63 0,1.63 0,0 0.3,3.65 0.3,3.65 0,0 0.2,4.13 0.2,4.13 0,0 0,4.63 0,4.63 0,0 0,54.66 0,54.66 0,0 -56.7,0 -56.7,0 0,0 0,21.69 0,21.69 0,0 56.7,0 56.7,0 0,0 0,62.26 0,62.26 0,0 0,4.65 0,4.65 0,0 -0.2,4.16 -0.2,4.16 0,0 -0.3,3.66 -0.3,3.66 0,0 0,1.64 0,1.64 0,0 -0.2,1.52 -0.2,1.52 0,0 -0.3,1.4 -0.3,1.4 0,0 -0.2,1.28 -0.2,1.28 0,0 -0.3,1.15 -0.3,1.15 0,0 -0.2,1.02 -0.2,1.02 0,0 -0.3,0.9 -0.3,0.9 0,0 -0.5,0.78 -0.5,0.78 0,0 -0.2,0.65 -0.2,0.65 0,0 -0.5,0.53 -0.5,0.53 0,0 -0.5,0.46 -0.5,0.46 0,0 -0.5,0.44 -0.5,0.44 0,0 -0.7,0.42 -0.7,0.42 0,0 -0.8,0.39 -0.8,0.39 0,0 -0.8,0.38 -0.8,0.38 0,0 -1,0.36 -1,0.36 0,0 -1.2,0.33 -1.2,0.33 0,0 -1.3,0.32 -1.3,0.32 0,0 -1.4,0.3 -1.4,0.3 0,0 -1.3,0.27 -1.3,0.27 0,0 -3.3,0.5 -3.3,0.5 0,0 -3.9,0.4 -3.9,0.4 0,0 -4.1,0.33 -4.1,0.33 0,0 -2.7,0.15 -2.7,0.15 0,0 0,8.93 0,8.93 0,0 83.7,0 83.7,0 z"
           stroke="#000000"
           stroke-width="1"
           style="stroke-width:0.559"
           id="path2" />
        <path
           d="m -1988.7,3254.25 c 0,0 -2.6,-0.14 -2.6,-0.14 0,0 -4.2,-0.33 -4.2,-0.33 0,0 -3.7,-0.4 -3.7,-0.4 0,0 -3.3,-0.5 -3.3,-0.5 0,0 -2.8,-0.57 -2.8,-0.57 0,0 -1.2,-0.32 -1.2,-0.32 0,0 -1.3,-0.33 -1.3,-0.33 0,0 -1,-0.36 -1,-0.36 0,0 -0.9,-0.37 -0.9,-0.37 0,0 -0.8,-0.41 -0.8,-0.41 0,0 -0.7,-0.41 -0.7,-0.41 0,0 -0.5,-0.44 -0.5,-0.44 0,0 -0.5,-0.46 -0.5,-0.46 0,0 -0.3,-0.53 -0.3,-0.53 0,0 -0.3,-0.65 -0.3,-0.65 0,0 -0.5,-0.78 -0.5,-0.78 0,0 -0.2,-0.9 -0.2,-0.9 0,0 -0.3,-1.03 -0.3,-1.03 0,0 -0.2,-1.15 -0.2,-1.15 0,0 -0.3,-1.27 -0.3,-1.27 0,0 -0.4,-2.92 -0.4,-2.92 0,0 -0.1,-1.65 -0.1,-1.65 0,0 -0.4,-3.65 -0.4,-3.65 0,0 -0.1,-4.16 -0.1,-4.16 0,0 0,-4.65 0,-4.65 0,0 0,-62.36 0,-62.36 0,0 72.1,0 72.1,0 0,0 0,62.36 0,62.36 0,0 0,4.65 0,4.65 0,0 -0.1,4.16 -0.1,4.16 0,0 -0.2,3.65 -0.2,3.65 0,0 -0.3,1.65 -0.3,1.65 0,0 -0.4,2.92 -0.4,2.92 0,0 -0.1,1.27 -0.1,1.27 0,0 -0.4,1.15 -0.4,1.15 0,0 -0.3,1.03 -0.3,1.03 0,0 -0.3,0.9 -0.3,0.9 0,0 -0.2,0.78 -0.2,0.78 0,0 -0.5,0.65 -0.5,0.65 0,0 -0.3,0.53 -0.3,0.53 0,0 -0.5,0.46 -0.5,0.46 0,0 -0.5,0.44 -0.5,0.44 0,0 -0.7,0.41 -0.7,0.41 0,0 -0.8,0.41 -0.8,0.41 0,0 -1,0.37 -1,0.37 0,0 -1,0.36 -1,0.36 0,0 -1,0.33 -1,0.33 0,0 -1.4,0.32 -1.4,0.32 0,0 -2.8,0.57 -2.8,0.57 0,0 -3.3,0.5 -3.3,0.5 0,0 -3.7,0.4 -3.7,0.4 0,0 -4.3,0.33 -4.3,0.33 0,0 -2.5,0.14 -2.5,0.14 0,0 0,8.94 0,8.94 0,0 83.5,0 83.5,0 0,0 0,-8.94 0,-8.94 0,0 -2.7,-0.14 -2.7,-0.14 0,0 -4.2,-0.33 -4.2,-0.33 0,0 -3.6,-0.41 -3.6,-0.41 0,0 -3.4,-0.5 -3.4,-0.5 0,0 -1.3,-0.28 -1.3,-0.28 0,0 -1.5,-0.3 -1.5,-0.3 0,0 -1.2,-0.32 -1.2,-0.32 0,0 -1.1,-0.34 -1.1,-0.34 0,0 -1,-0.36 -1,-0.36 0,0 -1,-0.39 -1,-0.39 0,0 -0.7,-0.4 -0.7,-0.4 0,0 -0.8,-0.43 -0.8,-0.43 0,0 -0.5,-0.44 -0.5,-0.44 0,0 -0.5,-0.47 -0.5,-0.47 0,0 -0.4,-0.54 -0.4,-0.54 0,0 -0.3,-0.66 -0.3,-0.66 0,0 -0.3,-0.78 -0.3,-0.78 0,0 -0.4,-0.91 -0.4,-0.91 0,0 -0.1,-1.02 -0.1,-1.02 0,0 -0.4,-1.15 -0.4,-1.15 0,0 -0.1,-1.27 -0.1,-1.27 0,0 -0.2,-1.4 -0.2,-1.4 0,0 -0.5,-3.15 -0.5,-3.15 0,0 -0.2,-3.64 -0.2,-3.64 0,0 -0.1,-4.13 -0.1,-4.13 0,0 0,-4.62 0,-4.62 0,0 0,-138.62 0,-138.62 0,0 0,-4.62 0,-4.62 0,0 0.1,-4.14 0.1,-4.14 0,0 0.2,-3.64 0.2,-3.64 0,0 0.2,-1.64 0.2,-1.64 0,0 0.5,-2.9 0.5,-2.9 0,0 0.1,-1.27 0.1,-1.27 0,0 0.4,-1.14 0.4,-1.14 0,0 0.1,-1.02 0.1,-1.02 0,0 0.4,-0.9 0.4,-0.9 0,0 0.3,-0.77 0.3,-0.77 0,0 0.3,-0.65 0.3,-0.65 0,0 0.4,-0.53 0.4,-0.53 0,0 0.5,-0.46 0.5,-0.46 0,0 0.5,-0.43 0.5,-0.43 0,0 0.8,-0.42 0.8,-0.42 0,0 0.7,-0.39 0.7,-0.39 0,0 1,-0.38 1,-0.38 0,0 1,-0.35 1,-0.35 0,0 1.1,-0.34 1.1,-0.34 0,0 1.2,-0.31 1.2,-0.31 0,0 2.8,-0.57 2.8,-0.57 0,0 3.4,-0.49 3.4,-0.49 0,0 3.6,-0.4 3.6,-0.4 0,0 4.2,-0.33 4.2,-0.33 0,0 2.7,-0.29 2.7,-0.29 0,0 0,-8.93 0,-8.93 0,0 -83.5,0 -83.5,0 0,0 0,8.93 0,8.93 0,0 2.5,0.29 2.5,0.29 0,0 4.3,0.33 4.3,0.33 0,0 3.7,0.4 3.7,0.4 0,0 3.3,0.49 3.3,0.49 0,0 2.7,0.57 2.7,0.57 0,0 1.3,0.31 1.3,0.31 0,0 1.2,0.34 1.2,0.34 0,0 1,0.35 1,0.35 0,0 0.8,0.38 0.8,0.38 0,0 0.8,0.39 0.8,0.39 0,0 0.7,0.42 0.7,0.42 0,0 0.7,0.43 0.7,0.43 0,0 0.5,0.46 0.5,0.46 0,0 0.3,0.53 0.3,0.53 0,0 0.3,0.65 0.3,0.65 0,0 0.4,0.77 0.4,0.77 0,0 0.3,0.9 0.3,0.9 0,0 0.3,1.02 0.3,1.02 0,0 0.2,1.14 0.2,1.14 0,0 0.3,1.27 0.3,1.27 0,0 0.4,2.9 0.4,2.9 0,0 0.3,1.64 0.3,1.64 0,0 0.2,3.64 0.2,3.64 0,0 0.1,4.14 0.1,4.14 0,0 0,4.62 0,4.62 0,0 0,54.57 0,54.57 0,0 -72.1,0 -72.1,0 0,0 0,-54.57 0,-54.57 0,0 0,-4.62 0,-4.62 0,0 0.1,-4.14 0.1,-4.14 0,0 0.4,-3.64 0.4,-3.64 0,0 0.1,-1.64 0.1,-1.64 0,0 0.4,-2.9 0.4,-2.9 0,0 0.3,-1.27 0.3,-1.27 0,0 0.2,-1.14 0.2,-1.14 0,0 0.3,-1.02 0.3,-1.02 0,0 0.3,-0.9 0.3,-0.9 0,0 0.4,-0.77 0.4,-0.77 0,0 0.3,-0.65 0.3,-0.65 0,0 0.5,-0.53 0.5,-0.53 0,0 0.3,-0.46 0.3,-0.46 0,0 0.7,-0.43 0.7,-0.43 0,0 0.7,-0.42 0.7,-0.42 0,0 0.8,-0.39 0.8,-0.39 0,0 0.8,-0.38 0.8,-0.38 0,0 1,-0.35 1,-0.35 0,0 1.2,-0.34 1.2,-0.34 0,0 1.2,-0.31 1.2,-0.31 0,0 2.8,-0.57 2.8,-0.57 0,0 3.3,-0.49 3.3,-0.49 0,0 3.7,-0.4 3.7,-0.4 0,0 4.2,-0.33 4.2,-0.33 0,0 2.6,-0.29 2.6,-0.29 0,0 0,-8.93 0,-8.93 0,0 -83.6,0 -83.6,0 0,0 0,8.93 0,8.93 0,0 2.9,0.29 2.9,0.29 0,0 4.1,0.33 4.1,0.33 0,0 3.7,0.4 3.7,0.4 0,0 3.3,0.49 3.3,0.49 0,0 2.7,0.57 2.7,0.57 0,0 1.3,0.31 1.3,0.31 0,0 1.1,0.34 1.1,0.34 0,0 1,0.35 1,0.35 0,0 0.9,0.38 0.9,0.38 0,0 0.9,0.39 0.9,0.39 0,0 0.6,0.42 0.6,0.42 0,0 0.6,0.43 0.6,0.43 0,0 0.4,0.46 0.4,0.46 0,0 0.5,0.53 0.5,0.53 0,0 0.3,0.65 0.3,0.65 0,0 0.3,0.77 0.3,0.77 0,0 0.4,0.9 0.4,0.9 0,0 0.3,1.02 0.3,1.02 0,0 0.2,1.14 0.2,1.14 0,0 0.3,1.27 0.3,1.27 0,0 0.3,2.9 0.3,2.9 0,0 0.2,1.64 0.2,1.64 0,0 0.2,3.64 0.2,3.64 0,0 0.1,4.14 0.1,4.14 0,0 0.2,4.62 0.2,4.62 0,0 0,138.62 0,138.62 0,0 -0.2,4.62 -0.2,4.62 0,0 -0.1,4.13 -0.1,4.13 0,0 -0.2,3.64 -0.2,3.64 0,0 -0.3,3.15 -0.3,3.15 0,0 -0.2,1.4 -0.2,1.4 0,0 -0.3,1.27 -0.3,1.27 0,0 -0.2,1.15 -0.2,1.15 0,0 -0.3,1.02 -0.3,1.02 0,0 -0.4,0.91 -0.4,0.91 0,0 -0.3,0.78 -0.3,0.78 0,0 -0.3,0.66 -0.3,0.66 0,0 -0.5,0.54 -0.5,0.54 0,0 -0.4,0.47 -0.4,0.47 0,0 -0.6,0.44 -0.6,0.44 0,0 -0.6,0.43 -0.6,0.43 0,0 -0.9,0.4 -0.9,0.4 0,0 -0.9,0.39 -0.9,0.39 0,0 -1,0.36 -1,0.36 0,0 -1.1,0.34 -1.1,0.34 0,0 -1.3,0.32 -1.3,0.32 0,0 -1.2,0.3 -1.2,0.3 0,0 -1.5,0.28 -1.5,0.28 0,0 -3.3,0.5 -3.3,0.5 0,0 -3.7,0.41 -3.7,0.41 0,0 -4.1,0.33 -4.1,0.33 0,0 -2.9,0.14 -2.9,0.14 0,0 0,8.94 0,8.94 0,0 83.6,0 83.6,0 z"
           stroke="#000000"
           stroke-width="1"
           style="stroke-width:0.559"
           id="path3" />
      </g>
      <g
         id="g16"
         transform="translate(3049.7501,-326.96027)">
        <g
           id="g15">
          <path
             d="m -2432.2,3472.02 c 0,10.29 0,20.58 0,30.87 0,6.28 0.5,10.06 1.4,11.35 1,1.29 3.9,2.1 8.7,2.42 0.4,0.02 0.8,0.05 1.2,0.07 0,2.19 0,4.38 0,6.57 -14.8,0 -29.6,0 -44.4,0 0,-2.19 0,-4.38 0,-6.57 0.5,-0.02 0.9,-0.05 1.4,-0.07 4.7,-0.32 7.6,-1.13 8.5,-2.42 0.9,-1.29 1.4,-5.07 1.4,-11.35 0,-21.24 0,-42.48 0,-63.71 0,-6.28 -0.4,-10.05 -1.4,-11.32 -0.9,-1.26 -3.7,-2.08 -8.5,-2.46 -0.5,-0.02 -0.9,-0.04 -1.4,-0.06 0,-2.2 0,-4.38 0,-6.58 14.8,0 29.6,0 44.4,0 0,2.2 0,4.38 0,6.58 -0.4,0.02 -0.8,0.04 -1.2,0.06 -4.9,0.38 -7.8,1.2 -8.7,2.46 -0.9,1.27 -1.4,5.04 -1.4,11.32 0,8.47 0,16.95 0,25.42 14.4,0 28.8,0 43.2,0 0,-8.47 0,-16.95 0,-25.42 0,-6.28 -0.5,-10.05 -1.4,-11.32 -0.9,-1.26 -3.8,-2.08 -8.6,-2.46 -0.4,-0.02 -0.9,-0.04 -1.3,-0.06 0,-2.2 0,-4.38 0,-6.58 14.8,0 29.6,0 44.4,0 0,2.2 0,4.38 0,6.58 -0.4,0.02 -0.8,0.04 -1.3,0.06 -4.8,0.38 -7.7,1.2 -8.6,2.46 -0.9,1.27 -1.4,5.04 -1.4,11.32 0,21.23 0,42.47 0,63.71 0,6.28 0.5,10.06 1.4,11.35 1,1.29 3.8,2.1 8.6,2.42 0.5,0.02 0.9,0.05 1.3,0.07 0,2.19 0,4.38 0,6.57 -14.8,0 -29.6,0 -44.4,0 0,-2.19 0,-4.38 0,-6.57 0.4,-0.02 0.9,-0.05 1.3,-0.07 4.8,-0.32 7.6,-1.13 8.6,-2.42 0.9,-1.29 1.4,-5.07 1.4,-11.35 0,-10.29 0,-20.58 0,-30.87 -14.4,0 -28.8,0 -43.2,0 z"
             stroke-width="1"
             style="stroke:#000000;stroke-width:0.559"
             id="path4" />
          <path
             d="m -1779.6,3472.02 c 0,10.29 0,20.58 0,30.87 0,6.28 0.4,10.06 1.4,11.35 0.9,1.29 3.8,2.1 8.6,2.42 0.4,0.02 0.9,0.05 1.3,0.07 0,2.19 0,4.38 0,6.57 -14.8,0 -29.6,0 -44.5,0 0,-2.19 0,-4.38 0,-6.57 0.5,-0.02 0.9,-0.05 1.4,-0.07 4.7,-0.32 7.6,-1.13 8.5,-2.42 1,-1.29 1.5,-5.07 1.5,-11.35 0,-21.24 0,-42.48 0,-63.71 0,-6.28 -0.5,-10.05 -1.4,-11.32 -0.9,-1.26 -3.8,-2.08 -8.6,-2.46 -0.5,-0.02 -0.9,-0.04 -1.4,-0.06 0,-2.2 0,-4.38 0,-6.58 14.9,0 29.7,0 44.5,0 0,2.2 0,4.38 0,6.58 -0.4,0.02 -0.9,0.04 -1.3,0.06 -4.8,0.38 -7.7,1.2 -8.6,2.46 -1,1.27 -1.4,5.04 -1.4,11.32 0,8.47 0,16.95 0,25.42 14.4,0 28.7,0 43.1,0 0,-8.47 0,-16.95 0,-25.42 0,-6.28 -0.4,-10.05 -1.3,-11.32 -1,-1.26 -3.8,-2.08 -8.6,-2.46 -0.5,-0.02 -0.9,-0.04 -1.4,-0.06 0,-2.2 0,-4.38 0,-6.58 14.8,0 29.6,0 44.5,0 0,2.2 0,4.38 0,6.58 -0.5,0.02 -0.9,0.04 -1.3,0.06 -4.9,0.38 -7.7,1.2 -8.7,2.46 -0.9,1.27 -1.3,5.04 -1.3,11.32 0,21.23 0,42.47 0,63.71 0,6.28 0.4,10.06 1.4,11.35 0.9,1.29 3.8,2.1 8.6,2.42 0.4,0.02 0.8,0.05 1.3,0.07 0,2.19 0,4.38 0,6.57 -14.9,0 -29.7,0 -44.5,0 0,-2.19 0,-4.38 0,-6.57 0.5,-0.02 0.9,-0.05 1.4,-0.07 4.7,-0.32 7.6,-1.13 8.5,-2.42 1,-1.29 1.4,-5.07 1.4,-11.35 0,-10.29 0,-20.58 0,-30.87 -14.4,0 -28.7,0 -43.1,0 z"
             stroke-width="1"
             style="stroke:#000000;stroke-width:0.559"
             id="path5" />
          <path
             d="m -2169.6,3523.3 c -17.4,-23.74 -34.8,-47.49 -52.2,-71.23 0,17.17 0,34.35 0,51.52 0,5.66 0.4,9.05 1.3,10.22 0.8,1.16 3.4,1.88 7.7,2.18 0.4,0.02 0.8,0.04 1.2,0.06 0,1.97 0,3.94 0,5.92 -9.9,0 -19.8,0 -29.7,0 0,-1.98 0,-3.95 0,-5.92 0.4,-0.02 0.8,-0.04 1.2,-0.06 4.3,-0.3 6.9,-1.02 7.7,-2.18 0.9,-1.17 1.3,-4.56 1.3,-10.22 0,-19.11 0,-38.22 0,-57.34 0,-5.64 -0.4,-9.04 -1.2,-10.18 -0.9,-1.14 -3.4,-1.87 -7.8,-2.21 -0.4,-0.02 -0.8,-0.04 -1.2,-0.06 0,-1.97 0,-3.95 0,-5.92 7.9,0 15.7,0 23.6,0 17.3,23.68 34.6,47.36 51.8,71.04 0,-17.55 0,-35.11 0,-52.67 0,-5.64 -0.4,-9.04 -1.2,-10.18 -0.8,-1.14 -3.4,-1.87 -7.7,-2.21 -0.4,-0.02 -0.8,-0.04 -1.2,-0.06 0,-1.97 0,-3.95 0,-5.92 9.8,0 19.7,0 29.6,0 0,1.97 0,3.95 0,5.92 -0.4,0.02 -0.8,0.04 -1.2,0.06 -4.3,0.34 -6.9,1.07 -7.7,2.21 -0.9,1.14 -1.3,4.54 -1.3,10.18 0,25.68 0,51.36 0,77.05 -4.3,0 -8.7,0 -13,0 z"
             stroke-width="1"
             style="stroke:#000000;stroke-width:0.559"
             id="path6" />
          <path
             d="m -2100,3435.45 c 13.5,0 23.1,2.95 28.8,8.87 5.6,5.91 8.5,15.9 8.5,29.97 0,14.11 -2.6,24.7 -7.7,31.75 -5.1,7.06 -12.7,10.59 -22.9,10.59 -6.1,0 -9.9,-0.68 -11.5,-2 -1.5,-1.34 -2.3,-4.6 -2.3,-9.76 0,-23.15 0,-46.28 0,-69.42 2.4,0 4.8,0 7.1,0 z m 13.8,87.85 c 13.4,0 24.2,-4.44 32.2,-13.32 8,-8.88 12,-20.77 12,-35.69 0,-14.54 -3.9,-25.73 -11.8,-33.57 -7.9,-7.84 -19.2,-11.76 -33.9,-11.76 -1.6,0.03 -3.3,0.05 -4.9,0.07 -4.6,0.06 -9.1,0.12 -13.6,0.19 -10.2,0 -20.4,0 -30.6,0 0,1.97 0,3.94 0,5.91 0.4,0.02 0.8,0.04 1.2,0.06 4.3,0.34 6.9,1.08 7.7,2.22 0.9,1.14 1.3,4.53 1.3,10.18 0,19.11 0,38.23 0,57.34 0,5.65 -0.4,9.05 -1.3,10.21 -0.8,1.16 -3.4,1.89 -7.7,2.18 -0.4,0.03 -0.8,0.04 -1.2,0.07 0,1.97 0,3.94 0,5.91 16.9,0 33.7,0 50.6,0 z"
             stroke-width="1"
             style="stroke:#000000;stroke-width:0.559"
             id="path7" />
          <path
             d="m -1979.6,3441.26 c -4.1,0 -8.2,0 -12.2,0 -3.2,0 -5.2,0.43 -6.1,1.3 -0.9,0.86 -1.4,3.51 -1.4,7.95 0,0.48 -0.1,0.95 -0.1,1.43 -2.5,0 -5,0 -7.5,0 0,-5.22 0,-10.45 0,-15.67 23.4,0 46.9,0 70.3,0 0,5.22 0,10.45 0,15.67 -2.5,0 -5,0 -7.5,0 0,-0.48 0,-0.95 0,-1.43 -0.1,-4.44 -0.5,-7.09 -1.4,-7.95 -0.9,-0.87 -3,-1.3 -6.1,-1.3 -4.1,0 -8.2,0 -12.3,0 0,18.51 0,37.02 0,55.53 0.3,5.05 0.7,7.9 1.2,8.55 0.5,0.64 3,1.11 7.3,1.42 0.3,0.01 0.6,0.03 0.9,0.05 0,1.58 0,3.15 0,4.73 -11.5,0 -23,0 -34.5,0 0,-1.58 0,-3.15 0,-4.73 0.3,-0.02 0.6,-0.04 0.9,-0.05 4.2,-0.27 6.6,-0.85 7.4,-1.75 0.7,-0.89 1.1,-3.62 1.1,-8.17 0,-18.53 0,-37.06 0,-55.58 z"
             stroke-width="1"
             style="stroke:#000000;stroke-width:0.559"
             id="path8" />
          <path
             d="m -1909.6,3499.76 c -3.6,-5.79 -5.4,-14.46 -5.4,-26.03 0,-11.47 1.8,-20.06 5.4,-25.78 3.6,-5.72 9,-8.57 16.1,-8.57 7.2,0 12.6,2.85 16.2,8.57 3.6,5.72 5.4,14.31 5.4,25.78 0,11.57 -1.8,20.24 -5.4,26.03 -3.6,5.78 -9,8.67 -16.2,8.67 -7.1,0 -12.5,-2.89 -16.1,-8.67 z m 44,3.06 c 6.8,-7.07 10.2,-16.71 10.2,-28.91 0,-12.24 -3.4,-21.89 -10.2,-28.94 -6.8,-7.05 -16.1,-10.58 -27.9,-10.58 -11.8,0 -21.2,3.53 -28,10.58 -6.8,7.05 -10.2,16.7 -10.2,28.94 0,12.2 3.4,21.84 10.2,28.91 6.8,7.07 16.2,10.6 28,10.6 11.8,0 21.1,-3.53 27.9,-10.6 z"
             stroke-width="1"
             style="stroke:#000000;stroke-width:0.559"
             id="path9" />
          <path
             d="m -1667.1,3506.23 c -4.5,-7.24 -6.7,-18.09 -6.7,-32.55 0,-14.33 2.2,-25.07 6.7,-32.22 4.5,-7.14 11.3,-10.72 20.2,-10.72 9,0 15.7,3.58 20.2,10.72 4.5,7.15 6.7,17.89 6.7,32.22 0,14.46 -2.2,25.31 -6.7,32.55 -4.5,7.23 -11.2,10.84 -20.2,10.84 -8.9,0 -15.7,-3.61 -20.2,-10.84 z m 55.1,3.82 c 8.5,-8.84 12.8,-20.89 12.8,-36.14 0,-15.3 -4.3,-27.36 -12.8,-36.17 -8.5,-8.82 -20.2,-13.23 -34.9,-13.23 -14.8,0 -26.5,4.41 -35,13.23 -8.5,8.81 -12.8,20.87 -12.8,36.17 0,15.25 4.3,27.3 12.8,36.14 8.5,8.83 20.2,13.25 35,13.25 14.7,0 26.4,-4.42 34.9,-13.25 z"
             stroke-width="1"
             style="fill-rule:evenodd;stroke:#000000;stroke-width:0.559"
             id="path10" />
          <path
             d="m -1591.8,3429.22 c 10.4,0 20.9,0 31.3,0 8.7,20.3 17.4,40.6 26.1,60.9 8.9,-20.3 17.7,-40.6 26.6,-60.9 9.4,0 18.8,0 28.2,0 0,1.97 0,3.94 0,5.91 -0.4,0.02 -0.8,0.04 -1.2,0.06 -4.3,0.34 -6.9,1.08 -7.7,2.22 -0.9,1.14 -1.3,4.53 -1.3,10.18 0,19.11 0,38.23 0,57.34 0,5.65 0.5,9.05 1.3,10.21 0.8,1.16 3.4,1.89 7.7,2.18 0.4,0.03 0.8,0.04 1.2,0.07 0,1.97 0,3.94 0,5.91 -12.3,0 -24.6,0 -36.9,0 0,-1.97 0,-3.94 0,-5.91 0.4,-0.03 0.8,-0.04 1.2,-0.07 3.6,-0.21 5.7,-0.9 6.4,-2.08 0.7,-1.19 1.1,-4.62 1.1,-10.31 0,-18.63 0,-37.25 0,-55.88 -9.8,21.26 -19.6,42.51 -29.4,63.76 -2.1,0 -4.2,0 -6.3,0 -9.5,-22.56 -19.1,-45.13 -28.7,-67.7 0,19.94 0,39.88 0,59.82 0,5.61 0.4,9.02 1.1,10.24 0.8,1.23 2.9,1.94 6.4,2.15 0.4,0.03 0.8,0.04 1.2,0.07 0,1.97 0,3.94 0,5.91 -9.4,0 -18.9,0 -28.3,0 0,-1.97 0,-3.94 0,-5.91 0.4,-0.03 0.8,-0.04 1.2,-0.07 4.3,-0.29 6.9,-1.02 7.7,-2.18 0.8,-1.16 1.3,-4.56 1.3,-10.21 0,-19.11 0,-38.23 0,-57.34 0,-5.65 -0.4,-9.04 -1.3,-10.18 -0.8,-1.14 -3.4,-1.88 -7.7,-2.22 -0.4,-0.02 -0.8,-0.04 -1.2,-0.06 0,-1.97 0,-3.94 0,-5.91 z"
             stroke-width="1"
             style="stroke:#000000;stroke-width:0.559"
             id="path11" />
          <path
             d="m -1392.3,3523.3 c -23.9,0 -47.8,0 -71.8,0 0,-1.97 0,-3.94 0,-5.91 0.4,-0.03 0.8,-0.04 1.2,-0.07 4.3,-0.29 6.9,-1.02 7.7,-2.18 0.9,-1.16 1.3,-4.56 1.3,-10.21 0,-19.11 0,-38.23 0,-57.34 0,-5.65 -0.4,-9.04 -1.2,-10.18 -0.9,-1.14 -3.4,-1.88 -7.8,-2.22 -0.4,-0.02 -0.8,-0.04 -1.2,-0.06 0,-1.97 0,-3.94 0,-5.91 23.1,0 46.1,0 69.1,0 0,5.62 0,11.23 0,16.84 -3.2,0 -6.3,0 -9.4,0 -0.1,-0.4 -0.1,-0.8 -0.2,-1.21 -0.1,-2.15 -0.2,-3.43 -0.2,-3.81 0,-2.37 -0.5,-3.9 -1.6,-4.57 -1.2,-0.69 -3.7,-1.02 -7.6,-1.02 -6.8,0 -13.5,0 -20.2,0 0,11.9 0,23.81 0,35.72 4.3,0 8.7,0 13,0 5.1,0 8,-0.12 8.7,-0.38 0.8,-0.25 1.2,-2.2 1.3,-5.86 0,-0.39 0,-0.8 0.1,-1.19 2.2,0 4.4,0 6.7,0 0,6.78 0,13.56 0,20.34 -2.3,0 -4.5,0 -6.7,0 -0.1,-0.38 -0.1,-0.77 -0.1,-1.15 -0.1,-3.35 -0.7,-5.23 -1.8,-5.66 -1.1,-0.42 -3.8,-0.63 -8.2,-0.63 -4.4,0 -8.9,0 -13.4,0 0,9.41 0,18.82 0,28.23 0,7.03 0.8,10.78 2.5,11.25 1.2,0.33 4.6,0.51 10.1,0.51 2.6,0 5.3,0 7.9,0 6.3,0 9.9,-0.31 10.7,-0.93 0.7,-0.61 1.3,-3.57 1.6,-8.86 0.1,-0.41 0.1,-0.81 0.1,-1.21 3.1,0 6.3,0 9.4,0 0,5.89 0,11.78 0,17.67 z"
             stroke-width="1"
             style="stroke:#000000;stroke-width:0.559"
             id="path12" />
          <path
             d="m -1999.2,3469.57 v 8.68 h -29.9 v -8.68 z"
             stroke-width="1"
             style="stroke:#000000;stroke-width:0.559"
             id="path13" />
          <path
             d="m -1815.4,3469.57 v 8.68 h -29.8 v -8.68 z"
             stroke-width="1"
             style="stroke:#000000;stroke-width:0.559"
             id="path14" />
          <path
             d="m -2301.9,3446.32 c 6,14.28 11.9,28.56 17.9,42.84 -12,0 -24,0 -36,0 6,-14.28 12.1,-28.56 18.1,-42.84 z m 20.2,47.99 c 1.7,4.18 3.5,8.35 5.3,12.52 1.7,4.16 2.6,7.48 2.6,9.99 0,1.69 -2.9,2.54 -8.9,2.54 -0.3,0 -0.7,0 -1.1,0 0,1.32 0,2.63 0,3.94 11.6,0 23.3,0 34.9,0 0,-1.31 0,-2.62 0,-3.94 -0.5,-0.02 -1,-0.04 -1.5,-0.07 -3.1,-0.16 -5.1,-0.79 -6.2,-1.87 -1.1,-1.08 -2.9,-4.46 -5.5,-10.14 -11,-26.42 -22,-52.85 -33,-79.27 -1.5,0 -2.9,0 -4.4,0 -11.1,26.28 -22.1,52.55 -33.2,78.83 -2.8,6.65 -4.6,10.34 -5.3,11.09 -0.7,0.74 -2.9,1.2 -6.5,1.36 -0.5,0.03 -0.9,0.05 -1.4,0.07 0,1.32 0,2.63 0,3.94 8.2,0 16.3,0 24.5,0 0,-1.31 0,-2.62 0,-3.94 -0.4,0 -0.7,0 -1.1,0 -5.4,0 -8.2,-0.89 -8.2,-2.67 0,-1.66 1.1,-4.95 3.2,-9.88 1.8,-4.16 3.6,-8.33 5.4,-12.5 13.5,0 26.9,0 40.4,0 z"
             stroke-width="1"
             style="stroke:#000000;stroke-width:0.559"
             id="path15" />
        </g>
        <text
           style="font-size:59.8838px;line-height:95.814px;font-family:'Franklin Gothic Book';letter-spacing:20px;white-space:pre"
           transform="matrix(1.474857,0,0,1.586407,1099.3568,-2248.4424)"
           x="-2235.1001"
           y="3710.3601"
           id="text15">STUDIOS</text>
      </g>
    </g>
  </g>
</svg>
