<?xml version="1.0" encoding="UTF-8" standalone="no"?>
<!-- Created with Inkscape (http://www.inkscape.org/) -->

<svg
   width="69.849762mm"
   height="75.159492mm"
   viewBox="0 0 69.849762 75.159491"
   version="1.1"
   id="svg1"
   inkscape:version="1.3.2 (091e20e, 2023-11-25, custom)"
   sodipodi:docname="Housemark - SVG - Work.svg"
   inkscape:export-filename="Gold - Housemark\Housemark - JPG - Gold.jpg"
   inkscape:export-xdpi="103.29798"
   inkscape:export-ydpi="103.29798"
   xmlns:inkscape="http://www.inkscape.org/namespaces/inkscape"
   xmlns:sodipodi="http://sodipodi.sourceforge.net/DTD/sodipodi-0.dtd"
   xmlns="http://www.w3.org/2000/svg"
   xmlns:svg="http://www.w3.org/2000/svg">
  <sodipodi:namedview
     id="namedview1"
     pagecolor="#ffffff"
     bordercolor="#000000"
     borderopacity="0.25"
     inkscape:showpageshadow="2"
     inkscape:pageopacity="0.0"
     inkscape:pagecheckerboard="0"
     inkscape:deskcolor="#d1d1d1"
     inkscape:document-units="mm"
     inkscape:zoom="2.768771"
     inkscape:cx="401.80282"
     inkscape:cy="163.06874"
     inkscape:window-width="2400"
     inkscape:window-height="1261"
     inkscape:window-x="-9"
     inkscape:window-y="-9"
     inkscape:window-maximized="1"
     inkscape:current-layer="layer1"
     showgrid="false"
     inkscape:export-bgcolor="#ffffff00" />
  <defs
     id="defs1" />
  <g
     inkscape:label="Layer 1"
     inkscape:groupmode="layer"
     id="layer1"
     transform="translate(2.4752246,-30.925218)">
    <rect
       style="fill:#ffffff;stroke-width:0.490412"
       id="rect2"
       width="73.025002"
       height="77.571602"
       x="87.674843"
       y="41.568859" />
    <g
       id="g1"
       transform="translate(-91.737453,-11.849421)">
      <path
         d="M 91.989507,115.22303 V 71.695944 l 31.212663,-25.862143 0.15513,-0.130311 0.13962,-0.121004 0.0465,-0.02327 v -0.01396 l 0.031,-0.01706 0.0465,-0.01241 0.031,-0.01241 0.0465,-0.0078 0.031,-0.0062 0.0465,-0.0046 0.031,-0.0016 0.0465,0.0016 v 0.0016 l 0.0465,0.0062 0.062,0.0078 0.0465,0.01241 0.031,0.01862 v 0.01706 l 0.0465,0.02792 0.031,0.02948 0.0776,0.04964 0.0466,0.04809 32.15897,26.636253 v 42.883261 z m -2.094289,2.09273 0.04654,0.0481 0.06205,0.0543 0.01551,0.0263 0.124106,0.0714 0.07757,0.0636 0.03103,0.0217 0.06205,0.0373 0.06205,0.031 0.09308,0.0496 0.09308,0.0388 0.06205,0.0233 0.124106,0.0357 0.01551,0.009 0.07757,0.0186 0.07757,0.0109 0.07757,0.0155 0.108593,0.0109 0.04654,0.003 0.155132,0.006 0.232699,-0.003 h 65.590026 l 0.0465,-0.002 0.10859,-0.006 0.0776,-0.008 0.0776,-0.0109 0.1241,-0.0248 0.031,-0.009 0.0776,-0.0217 0.1086,-0.0263 0.0155,-0.0124 0.0776,-0.0341 0.062,-0.0171 0.0776,-0.0373 0.0776,-0.0403 0.0155,-0.0233 0.10859,-0.0527 0.0776,-0.059 0.0776,-0.062 0.031,-0.0263 0.0465,-0.0574 0.0466,-0.0496 0.031,-0.0326 0.0776,-0.0605 0.031,-0.0496 0.0465,-0.0853 0.031,-0.0373 0.0776,-0.0962 v -0.0326 l 0.0465,-0.0869 0.031,-0.0357 v -0.0248 l 0.0465,-0.11325 0.0465,-0.12255 0.031,-0.0403 0.031,-0.10083 v -0.0931 l 0.0155,-0.10239 0.031,-0.13186 V 71.72697 l -0.031,-0.09463 -0.0155,-0.08532 v -0.04964 l -0.031,-0.06981 -0.031,-0.08377 -0.0155,-0.04499 -0.031,-0.07291 v -0.03723 l -0.0465,-0.06516 -0.031,-0.08067 -0.0465,-0.04964 -0.031,-0.06826 -0.0311,-0.02637 -0.0931,-0.148927 -0.031,-0.03568 -0.0776,-0.0605 -0.0465,-0.06205 -0.031,-0.02793 -0.12411,-0.09308 -32.37615,-26.825516 -0.0776,-0.07136 -0.1241,-0.08067 -0.0776,-0.07291 -0.13962,-0.08532 -0.12411,-0.07912 -0.1241,-0.07446 -0.13962,-0.07446 -0.0776,-0.03413 -0.0931,-0.03723 -0.0776,-0.03413 -0.13961,-0.03723 -0.0931,-0.03413 -0.10859,-0.02327 -0.12411,-0.02637 -0.10859,-0.01862 -0.1086,-0.01551 -0.0931,-0.01396 -0.10859,-0.0078 -0.0776,-0.0046 -0.12411,-0.0016 -0.10859,0.0031 -0.12411,0.0046 -0.10859,0.01241 -0.12411,0.01241 -0.10859,0.01706 -0.10859,0.02172 -0.0155,0.0078 -0.13962,0.02948 -0.12411,0.03723 -0.0465,0.01551 -0.10859,0.04033 -0.15514,0.05895 -0.10859,0.04964 -0.0465,0.01706 -0.1086,0.0574 -0.0776,0.04964 -0.0931,0.06205 -0.13962,0.08687 -0.0931,0.08067 -0.031,0.02637 -0.18616,0.141171 -0.15513,0.138068 -31.367796,25.981594 -0.124106,0.08998 -0.07757,0.07136 -0.01551,0.02482 -0.07757,0.06826 -0.04654,0.04499 -0.04654,0.06826 -0.04654,0.03723 -0.06205,0.08843 -0.01551,0.03723 -0.09308,0.148927 -0.06205,0.125658 -0.01551,0.03258 -0.01551,0.07912 -0.03103,0.0636 -0.03103,0.09773 v 0.03103 l -0.01551,0.08843 v 0.05591 l -0.03103,0.08377 v 0.03723 l -0.01551,0.113247 v 44.758828 l 0.01551,0.1117 0.03103,0.10704 v 0.0419 l 0.01551,0.0341 0.01551,0.10548 0.04654,0.11325 0.01551,0.0496 0.03103,0.1117 0.03103,0.0311 0.01551,0.09 0.03103,0.0403 0.04654,0.0745 0.01551,0.0295 0.06205,0.10239 0.03103,0.0435 0.04654,0.0682 0.06205,0.0481 0.04654,0.0714 z"
         stroke="#000000"
         stroke-width="1"
         style="stroke-width:0.0867191"
         id="path1" />
      <g
         id="g3"
         transform="matrix(0.15513252,0,0,0.15513252,423.41462,-400.0791)">
        <path
           d="m -1785.3,3254.16 c 0,0 -2.9,-0.15 -2.9,-0.15 0,0 -4.1,-0.33 -4.1,-0.33 0,0 -3.7,-0.41 -3.7,-0.41 0,0 -3.3,-0.49 -3.3,-0.49 0,0 -1.5,-0.28 -1.5,-0.28 0,0 -1.2,-0.3 -1.2,-0.3 0,0 -1.3,-0.33 -1.3,-0.33 0,0 -1.2,-0.34 -1.2,-0.34 0,0 -1,-0.36 -1,-0.36 0,0 -0.8,-0.38 -0.8,-0.38 0,0 -0.9,-0.41 -0.9,-0.41 0,0 -0.6,-0.43 -0.6,-0.43 0,0 -0.5,-0.44 -0.5,-0.44 0,0 -0.5,-0.47 -0.5,-0.47 0,0 -0.5,-0.53 -0.5,-0.53 0,0 -0.2,-0.67 -0.2,-0.67 0,0 -0.5,-0.78 -0.5,-0.78 0,0 -0.3,-0.9 -0.3,-0.9 0,0 -0.2,-1.03 -0.2,-1.03 0,0 -0.3,-1.15 -0.3,-1.15 0,0 -0.2,-1.27 -0.2,-1.27 0,0 -0.3,-1.4 -0.3,-1.4 0,0 -0.2,-1.51 -0.2,-1.51 0,0 0,-1.64 0,-1.64 0,0 -0.3,-3.64 -0.3,-3.64 0,0 -0.2,-4.13 -0.2,-4.13 0,0 0,-4.62 0,-4.62 0,0 0,-138.61 0,-138.61 0,0 0,-4.63 0,-4.63 0,0 0.2,-4.13 0.2,-4.13 0,0 0.3,-3.65 0.3,-3.65 0,0 0,-1.63 0,-1.63 0,0 0.2,-1.52 0.2,-1.52 0,0 0.3,-1.39 0.3,-1.39 0,0 0.2,-1.26 0.2,-1.26 0,0 0.3,-1.14 0.3,-1.14 0,0 0.2,-1.03 0.2,-1.03 0,0 0.3,-0.89 0.3,-0.89 0,0 0.5,-0.78 0.5,-0.78 0,0 0.2,-0.65 0.2,-0.65 0,0 0.5,-0.53 0.5,-0.53 0,0 0.5,-0.45 0.5,-0.45 0,0 0.5,-0.44 0.5,-0.44 0,0 0.6,-0.41 0.6,-0.41 0,0 0.9,-0.4 0.9,-0.4 0,0 0.8,-0.37 0.8,-0.37 0,0 1,-0.36 1,-0.36 0,0 1.2,-0.34 1.2,-0.34 0,0 1.3,-0.31 1.3,-0.31 0,0 1.2,-0.29 1.2,-0.29 0,0 1.5,-0.28 1.5,-0.28 0,0 3.3,-0.49 3.3,-0.49 0,0 3.7,-0.4 3.7,-0.4 0,0 4.1,-0.33 4.1,-0.33 0,0 2.9,-0.28 2.9,-0.28 0,0 0,-8.94 0,-8.94 0,0 -83.7,0 -83.7,0 0,0 0,8.94 0,8.94 0,0 2.7,0.28 2.7,0.28 0,0 4.1,0.33 4.1,0.33 0,0 3.7,0.4 3.7,0.4 0,0 3.3,0.49 3.3,0.49 0,0 1.4,0.28 1.4,0.28 0,0 1.5,0.29 1.5,0.29 0,0 1.1,0.31 1.1,0.31 0,0 1.2,0.34 1.2,0.34 0,0 1,0.36 1,0.36 0,0 1,0.37 1,0.37 0,0 0.7,0.4 0.7,0.4 0,0 0.8,0.41 0.8,0.41 0,0 0.5,0.44 0.5,0.44 0,0 0.5,0.45 0.5,0.45 0,0 0.3,0.53 0.3,0.53 0,0 0.4,0.65 0.4,0.65 0,0 0.3,0.78 0.3,0.78 0,0 0.3,0.89 0.3,0.89 0,0 0.4,1.03 0.4,1.03 0,0 0.3,1.14 0.3,1.14 0,0 0.2,1.26 0.2,1.26 0,0 0.3,1.39 0.3,1.39 0,0 0.2,1.52 0.2,1.52 0,0 0,1.63 0,1.63 0,0 0.3,3.65 0.3,3.65 0,0 0.2,4.13 0.2,4.13 0,0 0,4.63 0,4.63 0,0 0,54.66 0,54.66 0,0 -56.7,0 -56.7,0 0,0 0,21.69 0,21.69 0,0 56.7,0 56.7,0 0,0 0,62.26 0,62.26 0,0 0,4.65 0,4.65 0,0 -0.2,4.16 -0.2,4.16 0,0 -0.3,3.66 -0.3,3.66 0,0 0,1.64 0,1.64 0,0 -0.2,1.52 -0.2,1.52 0,0 -0.3,1.4 -0.3,1.4 0,0 -0.2,1.28 -0.2,1.28 0,0 -0.3,1.15 -0.3,1.15 0,0 -0.2,1.02 -0.2,1.02 0,0 -0.3,0.9 -0.3,0.9 0,0 -0.5,0.78 -0.5,0.78 0,0 -0.2,0.65 -0.2,0.65 0,0 -0.5,0.53 -0.5,0.53 0,0 -0.5,0.46 -0.5,0.46 0,0 -0.5,0.44 -0.5,0.44 0,0 -0.7,0.42 -0.7,0.42 0,0 -0.8,0.39 -0.8,0.39 0,0 -0.8,0.38 -0.8,0.38 0,0 -1,0.36 -1,0.36 0,0 -1.2,0.33 -1.2,0.33 0,0 -1.3,0.32 -1.3,0.32 0,0 -1.4,0.3 -1.4,0.3 0,0 -1.3,0.27 -1.3,0.27 0,0 -3.3,0.5 -3.3,0.5 0,0 -3.9,0.4 -3.9,0.4 0,0 -4.1,0.33 -4.1,0.33 0,0 -2.7,0.15 -2.7,0.15 0,0 0,8.93 0,8.93 0,0 83.7,0 83.7,0 z"
           stroke="#000000"
           stroke-width="1"
           style="stroke-width:0.559"
           id="path2" />
        <path
           d="m -1988.7,3254.25 c 0,0 -2.6,-0.14 -2.6,-0.14 0,0 -4.2,-0.33 -4.2,-0.33 0,0 -3.7,-0.4 -3.7,-0.4 0,0 -3.3,-0.5 -3.3,-0.5 0,0 -2.8,-0.57 -2.8,-0.57 0,0 -1.2,-0.32 -1.2,-0.32 0,0 -1.3,-0.33 -1.3,-0.33 0,0 -1,-0.36 -1,-0.36 0,0 -0.9,-0.37 -0.9,-0.37 0,0 -0.8,-0.41 -0.8,-0.41 0,0 -0.7,-0.41 -0.7,-0.41 0,0 -0.5,-0.44 -0.5,-0.44 0,0 -0.5,-0.46 -0.5,-0.46 0,0 -0.3,-0.53 -0.3,-0.53 0,0 -0.3,-0.65 -0.3,-0.65 0,0 -0.5,-0.78 -0.5,-0.78 0,0 -0.2,-0.9 -0.2,-0.9 0,0 -0.3,-1.03 -0.3,-1.03 0,0 -0.2,-1.15 -0.2,-1.15 0,0 -0.3,-1.27 -0.3,-1.27 0,0 -0.4,-2.92 -0.4,-2.92 0,0 -0.1,-1.65 -0.1,-1.65 0,0 -0.4,-3.65 -0.4,-3.65 0,0 -0.1,-4.16 -0.1,-4.16 0,0 0,-4.65 0,-4.65 0,0 0,-62.36 0,-62.36 0,0 72.1,0 72.1,0 0,0 0,62.36 0,62.36 0,0 0,4.65 0,4.65 0,0 -0.1,4.16 -0.1,4.16 0,0 -0.2,3.65 -0.2,3.65 0,0 -0.3,1.65 -0.3,1.65 0,0 -0.4,2.92 -0.4,2.92 0,0 -0.1,1.27 -0.1,1.27 0,0 -0.4,1.15 -0.4,1.15 0,0 -0.3,1.03 -0.3,1.03 0,0 -0.3,0.9 -0.3,0.9 0,0 -0.2,0.78 -0.2,0.78 0,0 -0.5,0.65 -0.5,0.65 0,0 -0.3,0.53 -0.3,0.53 0,0 -0.5,0.46 -0.5,0.46 0,0 -0.5,0.44 -0.5,0.44 0,0 -0.7,0.41 -0.7,0.41 0,0 -0.8,0.41 -0.8,0.41 0,0 -1,0.37 -1,0.37 0,0 -1,0.36 -1,0.36 0,0 -1,0.33 -1,0.33 0,0 -1.4,0.32 -1.4,0.32 0,0 -2.8,0.57 -2.8,0.57 0,0 -3.3,0.5 -3.3,0.5 0,0 -3.7,0.4 -3.7,0.4 0,0 -4.3,0.33 -4.3,0.33 0,0 -2.5,0.14 -2.5,0.14 0,0 0,8.94 0,8.94 0,0 83.5,0 83.5,0 0,0 0,-8.94 0,-8.94 0,0 -2.7,-0.14 -2.7,-0.14 0,0 -4.2,-0.33 -4.2,-0.33 0,0 -3.6,-0.41 -3.6,-0.41 0,0 -3.4,-0.5 -3.4,-0.5 0,0 -1.3,-0.28 -1.3,-0.28 0,0 -1.5,-0.3 -1.5,-0.3 0,0 -1.2,-0.32 -1.2,-0.32 0,0 -1.1,-0.34 -1.1,-0.34 0,0 -1,-0.36 -1,-0.36 0,0 -1,-0.39 -1,-0.39 0,0 -0.7,-0.4 -0.7,-0.4 0,0 -0.8,-0.43 -0.8,-0.43 0,0 -0.5,-0.44 -0.5,-0.44 0,0 -0.5,-0.47 -0.5,-0.47 0,0 -0.4,-0.54 -0.4,-0.54 0,0 -0.3,-0.66 -0.3,-0.66 0,0 -0.3,-0.78 -0.3,-0.78 0,0 -0.4,-0.91 -0.4,-0.91 0,0 -0.1,-1.02 -0.1,-1.02 0,0 -0.4,-1.15 -0.4,-1.15 0,0 -0.1,-1.27 -0.1,-1.27 0,0 -0.2,-1.4 -0.2,-1.4 0,0 -0.5,-3.15 -0.5,-3.15 0,0 -0.2,-3.64 -0.2,-3.64 0,0 -0.1,-4.13 -0.1,-4.13 0,0 0,-4.62 0,-4.62 0,0 0,-138.62 0,-138.62 0,0 0,-4.62 0,-4.62 0,0 0.1,-4.14 0.1,-4.14 0,0 0.2,-3.64 0.2,-3.64 0,0 0.2,-1.64 0.2,-1.64 0,0 0.5,-2.9 0.5,-2.9 0,0 0.1,-1.27 0.1,-1.27 0,0 0.4,-1.14 0.4,-1.14 0,0 0.1,-1.02 0.1,-1.02 0,0 0.4,-0.9 0.4,-0.9 0,0 0.3,-0.77 0.3,-0.77 0,0 0.3,-0.65 0.3,-0.65 0,0 0.4,-0.53 0.4,-0.53 0,0 0.5,-0.46 0.5,-0.46 0,0 0.5,-0.43 0.5,-0.43 0,0 0.8,-0.42 0.8,-0.42 0,0 0.7,-0.39 0.7,-0.39 0,0 1,-0.38 1,-0.38 0,0 1,-0.35 1,-0.35 0,0 1.1,-0.34 1.1,-0.34 0,0 1.2,-0.31 1.2,-0.31 0,0 2.8,-0.57 2.8,-0.57 0,0 3.4,-0.49 3.4,-0.49 0,0 3.6,-0.4 3.6,-0.4 0,0 4.2,-0.33 4.2,-0.33 0,0 2.7,-0.29 2.7,-0.29 0,0 0,-8.93 0,-8.93 0,0 -83.5,0 -83.5,0 0,0 0,8.93 0,8.93 0,0 2.5,0.29 2.5,0.29 0,0 4.3,0.33 4.3,0.33 0,0 3.7,0.4 3.7,0.4 0,0 3.3,0.49 3.3,0.49 0,0 2.7,0.57 2.7,0.57 0,0 1.3,0.31 1.3,0.31 0,0 1.2,0.34 1.2,0.34 0,0 1,0.35 1,0.35 0,0 0.8,0.38 0.8,0.38 0,0 0.8,0.39 0.8,0.39 0,0 0.7,0.42 0.7,0.42 0,0 0.7,0.43 0.7,0.43 0,0 0.5,0.46 0.5,0.46 0,0 0.3,0.53 0.3,0.53 0,0 0.3,0.65 0.3,0.65 0,0 0.4,0.77 0.4,0.77 0,0 0.3,0.9 0.3,0.9 0,0 0.3,1.02 0.3,1.02 0,0 0.2,1.14 0.2,1.14 0,0 0.3,1.27 0.3,1.27 0,0 0.4,2.9 0.4,2.9 0,0 0.3,1.64 0.3,1.64 0,0 0.2,3.64 0.2,3.64 0,0 0.1,4.14 0.1,4.14 0,0 0,4.62 0,4.62 0,0 0,54.57 0,54.57 0,0 -72.1,0 -72.1,0 0,0 0,-54.57 0,-54.57 0,0 0,-4.62 0,-4.62 0,0 0.1,-4.14 0.1,-4.14 0,0 0.4,-3.64 0.4,-3.64 0,0 0.1,-1.64 0.1,-1.64 0,0 0.4,-2.9 0.4,-2.9 0,0 0.3,-1.27 0.3,-1.27 0,0 0.2,-1.14 0.2,-1.14 0,0 0.3,-1.02 0.3,-1.02 0,0 0.3,-0.9 0.3,-0.9 0,0 0.4,-0.77 0.4,-0.77 0,0 0.3,-0.65 0.3,-0.65 0,0 0.5,-0.53 0.5,-0.53 0,0 0.3,-0.46 0.3,-0.46 0,0 0.7,-0.43 0.7,-0.43 0,0 0.7,-0.42 0.7,-0.42 0,0 0.8,-0.39 0.8,-0.39 0,0 0.8,-0.38 0.8,-0.38 0,0 1,-0.35 1,-0.35 0,0 1.2,-0.34 1.2,-0.34 0,0 1.2,-0.31 1.2,-0.31 0,0 2.8,-0.57 2.8,-0.57 0,0 3.3,-0.49 3.3,-0.49 0,0 3.7,-0.4 3.7,-0.4 0,0 4.2,-0.33 4.2,-0.33 0,0 2.6,-0.29 2.6,-0.29 0,0 0,-8.93 0,-8.93 0,0 -83.6,0 -83.6,0 0,0 0,8.93 0,8.93 0,0 2.9,0.29 2.9,0.29 0,0 4.1,0.33 4.1,0.33 0,0 3.7,0.4 3.7,0.4 0,0 3.3,0.49 3.3,0.49 0,0 2.7,0.57 2.7,0.57 0,0 1.3,0.31 1.3,0.31 0,0 1.1,0.34 1.1,0.34 0,0 1,0.35 1,0.35 0,0 0.9,0.38 0.9,0.38 0,0 0.9,0.39 0.9,0.39 0,0 0.6,0.42 0.6,0.42 0,0 0.6,0.43 0.6,0.43 0,0 0.4,0.46 0.4,0.46 0,0 0.5,0.53 0.5,0.53 0,0 0.3,0.65 0.3,0.65 0,0 0.3,0.77 0.3,0.77 0,0 0.4,0.9 0.4,0.9 0,0 0.3,1.02 0.3,1.02 0,0 0.2,1.14 0.2,1.14 0,0 0.3,1.27 0.3,1.27 0,0 0.3,2.9 0.3,2.9 0,0 0.2,1.64 0.2,1.64 0,0 0.2,3.64 0.2,3.64 0,0 0.1,4.14 0.1,4.14 0,0 0.2,4.62 0.2,4.62 0,0 0,138.62 0,138.62 0,0 -0.2,4.62 -0.2,4.62 0,0 -0.1,4.13 -0.1,4.13 0,0 -0.2,3.64 -0.2,3.64 0,0 -0.3,3.15 -0.3,3.15 0,0 -0.2,1.4 -0.2,1.4 0,0 -0.3,1.27 -0.3,1.27 0,0 -0.2,1.15 -0.2,1.15 0,0 -0.3,1.02 -0.3,1.02 0,0 -0.4,0.91 -0.4,0.91 0,0 -0.3,0.78 -0.3,0.78 0,0 -0.3,0.66 -0.3,0.66 0,0 -0.5,0.54 -0.5,0.54 0,0 -0.4,0.47 -0.4,0.47 0,0 -0.6,0.44 -0.6,0.44 0,0 -0.6,0.43 -0.6,0.43 0,0 -0.9,0.4 -0.9,0.4 0,0 -0.9,0.39 -0.9,0.39 0,0 -1,0.36 -1,0.36 0,0 -1.1,0.34 -1.1,0.34 0,0 -1.3,0.32 -1.3,0.32 0,0 -1.2,0.3 -1.2,0.3 0,0 -1.5,0.28 -1.5,0.28 0,0 -3.3,0.5 -3.3,0.5 0,0 -3.7,0.41 -3.7,0.41 0,0 -4.1,0.33 -4.1,0.33 0,0 -2.9,0.14 -2.9,0.14 0,0 0,8.94 0,8.94 0,0 83.6,0 83.6,0 z"
           stroke="#000000"
           stroke-width="1"
           style="stroke-width:0.559"
           id="path3" />
      </g>
    </g>
  </g>
</svg>
