<?xml version="1.0" encoding="UTF-8" standalone="no"?>
<!-- Created with Inkscape (http://www.inkscape.org/) -->

<svg
   width="73.025002mm"
   height="77.571602mm"
   viewBox="0 0 73.025002 77.5716"
   version="1.1"
   id="svg1"
   inkscape:version="1.3.2 (091e20e, 2023-11-25, custom)"
   sodipodi:docname="Housemark - SVG Gold.svg"
   inkscape:export-filename="Gold - Housemark\Housemark - JPG - Gold.jpg"
   inkscape:export-xdpi="103.29798"
   inkscape:export-ydpi="103.29798"
   xmlns:inkscape="http://www.inkscape.org/namespaces/inkscape"
   xmlns:sodipodi="http://sodipodi.sourceforge.net/DTD/sodipodi-0.dtd"
   xmlns="http://www.w3.org/2000/svg"
   xmlns:svg="http://www.w3.org/2000/svg">
  <sodipodi:namedview
     id="namedview1"
     pagecolor="#ffffff"
     bordercolor="#000000"
     borderopacity="0.25"
     inkscape:showpageshadow="2"
     inkscape:pageopacity="0.0"
     inkscape:pagecheckerboard="0"
     inkscape:deskcolor="#d1d1d1"
     inkscape:document-units="mm"
     inkscape:zoom="2.768771"
     inkscape:cx="61.399083"
     inkscape:cy="122.97875"
     inkscape:window-width="2400"
     inkscape:window-height="1261"
     inkscape:window-x="-9"
     inkscape:window-y="-9"
     inkscape:window-maximized="1"
     inkscape:current-layer="layer1"
     showgrid="false"
     inkscape:export-bgcolor="#ffffff00" />
  <defs
     id="defs1" />
  <g
     inkscape:label="Layer 1"
     inkscape:groupmode="layer"
     id="layer1"
     transform="translate(-87.674843,-41.568859)">
    <rect
       style="fill:#ffffff;stroke-width:0.490412"
       id="rect2"
       width="73.025002"
       height="77.571602"
       x="87.674843"
       y="41.568859" />
    <g
       id="g2"
       transform="matrix(1.056,0,0,1.056,-4.9986916,-2.3953799)">
      <g
         id="g1"
         transform="matrix(0.4941292,0,0,0.4941292,56.298875,22.771693)">
        <path
           d="M 71.936672,179.3243 V 95.907193 l 59.817248,-49.563282 0.2973,-0.249734 0.26757,-0.231896 0.0892,-0.0446 v -0.02676 l 0.0595,-0.0327 0.0892,-0.02378 0.0595,-0.02378 0.0892,-0.01487 0.0595,-0.01189 0.0892,-0.0089 0.0595,-0.003 0.0892,0.003 v 0.003 l 0.0892,0.01189 0.11892,0.01487 0.0892,0.02378 0.0595,0.03568 v 0.0327 l 0.0892,0.05351 0.0595,0.05649 0.14865,0.09514 0.0892,0.09216 61.63079,51.046821 V 179.3243 Z m -4.013583,4.01061 0.08919,0.0922 0.118921,0.10406 0.02973,0.0505 0.237842,0.13676 0.148651,0.12189 0.05946,0.0416 0.118921,0.0714 0.118921,0.0595 0.178381,0.0951 0.178382,0.0743 0.118921,0.0446 0.237842,0.0684 0.02973,0.0178 0.148651,0.0357 0.148651,0.0208 0.148651,0.0297 0.208112,0.0208 0.08919,0.006 0.297302,0.0119 0.445954,-0.006 H 196.77395 l 0.0892,-0.003 0.20811,-0.0119 0.14865,-0.0149 0.14866,-0.0208 0.23784,-0.0476 0.0595,-0.0178 0.14865,-0.0416 0.20811,-0.0505 0.0297,-0.0238 0.14865,-0.0654 0.11892,-0.0327 0.14865,-0.0714 0.14866,-0.0773 0.0297,-0.0446 0.20811,-0.10108 0.14865,-0.11298 0.14865,-0.11892 0.0595,-0.0505 0.0892,-0.11 0.0892,-0.0951 0.0595,-0.0624 0.14865,-0.11595 0.0595,-0.0951 0.0892,-0.16351 0.0595,-0.0714 0.14865,-0.18432 v -0.0624 l 0.0892,-0.16649 0.0595,-0.0684 v -0.0476 l 0.0892,-0.21703 0.0892,-0.23487 0.0595,-0.0773 0.0595,-0.19325 v -0.17838 l 0.0297,-0.19622 0.0595,-0.25271 V 95.966653 l -0.0595,-0.181354 -0.0297,-0.163517 v -0.09514 l -0.0595,-0.133787 -0.0595,-0.160543 -0.0297,-0.08622 -0.0595,-0.139733 v -0.07135 l -0.0892,-0.124867 -0.0595,-0.154597 -0.0892,-0.09514 -0.0595,-0.130813 -0.0595,-0.05054 -0.17839,-0.28541 -0.0595,-0.06838 -0.14865,-0.115947 -0.0892,-0.118921 -0.0595,-0.05352 -0.23784,-0.178381 -62.04701,-51.40953 -0.14865,-0.136759 -0.23784,-0.154597 -0.14865,-0.139732 -0.26758,-0.163516 -0.23784,-0.151625 -0.23784,-0.142705 -0.26757,-0.142705 -0.14865,-0.06541 -0.17838,-0.07135 -0.14866,-0.06541 -0.26757,-0.07135 -0.17838,-0.06541 -0.20811,-0.0446 -0.23784,-0.05054 -0.20811,-0.03568 -0.20812,-0.02973 -0.17838,-0.02676 -0.20811,-0.01487 -0.14865,-0.0089 -0.23784,-0.003 -0.20811,0.0059 -0.23785,0.0089 -0.20811,0.02378 -0.23784,0.02378 -0.20811,0.0327 -0.20811,0.04162 -0.0297,0.01487 -0.26758,0.05649 -0.23784,0.07135 -0.0892,0.02973 -0.20811,0.0773 -0.2973,0.112975 -0.20811,0.09514 -0.0892,0.0327 -0.20812,0.110002 -0.14865,0.09514 -0.17838,0.118921 -0.26757,0.16649 -0.17838,0.154597 -0.0595,0.05054 -0.35677,0.270546 -0.2973,0.264599 -60.114547,49.792204 -0.237842,0.172435 -0.148651,0.136759 -0.02973,0.04757 -0.148652,0.130813 -0.08919,0.08622 -0.08919,0.130813 -0.08919,0.07135 -0.118921,0.169463 -0.02973,0.07135 -0.178381,0.28541 -0.118921,0.240815 -0.02973,0.06243 -0.02973,0.151624 -0.05946,0.121894 -0.05946,0.187301 v 0.05946 l -0.02973,0.169462 V 94.6169 l -0.05946,0.160544 v 0.07135 l -0.02973,0.217031 v 85.777685 l 0.02973,0.21406 0.05946,0.20514 v 0.0803 l 0.02973,0.0654 0.02973,0.20216 0.08919,0.21703 0.02973,0.0951 0.05946,0.21406 0.05946,0.0595 0.02973,0.17243 0.05946,0.0773 0.08919,0.14271 0.02973,0.0565 0.118921,0.19622 0.05946,0.0833 0.08919,0.13081 0.118921,0.0922 0.08919,0.13676 z"
           stroke="#000000"
           stroke-width="1"
           style="stroke-width:0.166192"
           id="path1" />
        <g
           id="g3"
           transform="matrix(0.29730239,0,0,0.29730239,707.0935,-808.22207)">
          <path
             d="m -1785.3,3254.16 c 0,0 -2.9,-0.15 -2.9,-0.15 0,0 -4.1,-0.33 -4.1,-0.33 0,0 -3.7,-0.41 -3.7,-0.41 0,0 -3.3,-0.49 -3.3,-0.49 0,0 -1.5,-0.28 -1.5,-0.28 0,0 -1.2,-0.3 -1.2,-0.3 0,0 -1.3,-0.33 -1.3,-0.33 0,0 -1.2,-0.34 -1.2,-0.34 0,0 -1,-0.36 -1,-0.36 0,0 -0.8,-0.38 -0.8,-0.38 0,0 -0.9,-0.41 -0.9,-0.41 0,0 -0.6,-0.43 -0.6,-0.43 0,0 -0.5,-0.44 -0.5,-0.44 0,0 -0.5,-0.47 -0.5,-0.47 0,0 -0.5,-0.53 -0.5,-0.53 0,0 -0.2,-0.67 -0.2,-0.67 0,0 -0.5,-0.78 -0.5,-0.78 0,0 -0.3,-0.9 -0.3,-0.9 0,0 -0.2,-1.03 -0.2,-1.03 0,0 -0.3,-1.15 -0.3,-1.15 0,0 -0.2,-1.27 -0.2,-1.27 0,0 -0.3,-1.4 -0.3,-1.4 0,0 -0.2,-1.51 -0.2,-1.51 0,0 0,-1.64 0,-1.64 0,0 -0.3,-3.64 -0.3,-3.64 0,0 -0.2,-4.13 -0.2,-4.13 0,0 0,-4.62 0,-4.62 0,0 0,-138.61 0,-138.61 0,0 0,-4.63 0,-4.63 0,0 0.2,-4.13 0.2,-4.13 0,0 0.3,-3.65 0.3,-3.65 0,0 0,-1.63 0,-1.63 0,0 0.2,-1.52 0.2,-1.52 0,0 0.3,-1.39 0.3,-1.39 0,0 0.2,-1.26 0.2,-1.26 0,0 0.3,-1.14 0.3,-1.14 0,0 0.2,-1.03 0.2,-1.03 0,0 0.3,-0.89 0.3,-0.89 0,0 0.5,-0.78 0.5,-0.78 0,0 0.2,-0.65 0.2,-0.65 0,0 0.5,-0.53 0.5,-0.53 0,0 0.5,-0.45 0.5,-0.45 0,0 0.5,-0.44 0.5,-0.44 0,0 0.6,-0.41 0.6,-0.41 0,0 0.9,-0.4 0.9,-0.4 0,0 0.8,-0.37 0.8,-0.37 0,0 1,-0.36 1,-0.36 0,0 1.2,-0.34 1.2,-0.34 0,0 1.3,-0.31 1.3,-0.31 0,0 1.2,-0.29 1.2,-0.29 0,0 1.5,-0.28 1.5,-0.28 0,0 3.3,-0.49 3.3,-0.49 0,0 3.7,-0.4 3.7,-0.4 0,0 4.1,-0.33 4.1,-0.33 0,0 2.9,-0.28 2.9,-0.28 0,0 0,-8.94 0,-8.94 0,0 -83.7,0 -83.7,0 0,0 0,8.94 0,8.94 0,0 2.7,0.28 2.7,0.28 0,0 4.1,0.33 4.1,0.33 0,0 3.7,0.4 3.7,0.4 0,0 3.3,0.49 3.3,0.49 0,0 1.4,0.28 1.4,0.28 0,0 1.5,0.29 1.5,0.29 0,0 1.1,0.31 1.1,0.31 0,0 1.2,0.34 1.2,0.34 0,0 1,0.36 1,0.36 0,0 1,0.37 1,0.37 0,0 0.7,0.4 0.7,0.4 0,0 0.8,0.41 0.8,0.41 0,0 0.5,0.44 0.5,0.44 0,0 0.5,0.45 0.5,0.45 0,0 0.3,0.53 0.3,0.53 0,0 0.4,0.65 0.4,0.65 0,0 0.3,0.78 0.3,0.78 0,0 0.3,0.89 0.3,0.89 0,0 0.4,1.03 0.4,1.03 0,0 0.3,1.14 0.3,1.14 0,0 0.2,1.26 0.2,1.26 0,0 0.3,1.39 0.3,1.39 0,0 0.2,1.52 0.2,1.52 0,0 0,1.63 0,1.63 0,0 0.3,3.65 0.3,3.65 0,0 0.2,4.13 0.2,4.13 0,0 0,4.63 0,4.63 0,0 0,54.66 0,54.66 0,0 -56.7,0 -56.7,0 0,0 0,21.69 0,21.69 0,0 56.7,0 56.7,0 0,0 0,62.26 0,62.26 0,0 0,4.65 0,4.65 0,0 -0.2,4.16 -0.2,4.16 0,0 -0.3,3.66 -0.3,3.66 0,0 0,1.64 0,1.64 0,0 -0.2,1.52 -0.2,1.52 0,0 -0.3,1.4 -0.3,1.4 0,0 -0.2,1.28 -0.2,1.28 0,0 -0.3,1.15 -0.3,1.15 0,0 -0.2,1.02 -0.2,1.02 0,0 -0.3,0.9 -0.3,0.9 0,0 -0.5,0.78 -0.5,0.78 0,0 -0.2,0.65 -0.2,0.65 0,0 -0.5,0.53 -0.5,0.53 0,0 -0.5,0.46 -0.5,0.46 0,0 -0.5,0.44 -0.5,0.44 0,0 -0.7,0.42 -0.7,0.42 0,0 -0.8,0.39 -0.8,0.39 0,0 -0.8,0.38 -0.8,0.38 0,0 -1,0.36 -1,0.36 0,0 -1.2,0.33 -1.2,0.33 0,0 -1.3,0.32 -1.3,0.32 0,0 -1.4,0.3 -1.4,0.3 0,0 -1.3,0.27 -1.3,0.27 0,0 -3.3,0.5 -3.3,0.5 0,0 -3.9,0.4 -3.9,0.4 0,0 -4.1,0.33 -4.1,0.33 0,0 -2.7,0.15 -2.7,0.15 0,0 0,8.93 0,8.93 0,0 83.7,0 83.7,0 z"
             stroke="#000000"
             stroke-width="1"
             style="stroke-width:0.559"
             id="path2" />
          <path
             d="m -1988.7,3254.25 c 0,0 -2.6,-0.14 -2.6,-0.14 0,0 -4.2,-0.33 -4.2,-0.33 0,0 -3.7,-0.4 -3.7,-0.4 0,0 -3.3,-0.5 -3.3,-0.5 0,0 -2.8,-0.57 -2.8,-0.57 0,0 -1.2,-0.32 -1.2,-0.32 0,0 -1.3,-0.33 -1.3,-0.33 0,0 -1,-0.36 -1,-0.36 0,0 -0.9,-0.37 -0.9,-0.37 0,0 -0.8,-0.41 -0.8,-0.41 0,0 -0.7,-0.41 -0.7,-0.41 0,0 -0.5,-0.44 -0.5,-0.44 0,0 -0.5,-0.46 -0.5,-0.46 0,0 -0.3,-0.53 -0.3,-0.53 0,0 -0.3,-0.65 -0.3,-0.65 0,0 -0.5,-0.78 -0.5,-0.78 0,0 -0.2,-0.9 -0.2,-0.9 0,0 -0.3,-1.03 -0.3,-1.03 0,0 -0.2,-1.15 -0.2,-1.15 0,0 -0.3,-1.27 -0.3,-1.27 0,0 -0.4,-2.92 -0.4,-2.92 0,0 -0.1,-1.65 -0.1,-1.65 0,0 -0.4,-3.65 -0.4,-3.65 0,0 -0.1,-4.16 -0.1,-4.16 0,0 0,-4.65 0,-4.65 0,0 0,-62.36 0,-62.36 0,0 72.1,0 72.1,0 0,0 0,62.36 0,62.36 0,0 0,4.65 0,4.65 0,0 -0.1,4.16 -0.1,4.16 0,0 -0.2,3.65 -0.2,3.65 0,0 -0.3,1.65 -0.3,1.65 0,0 -0.4,2.92 -0.4,2.92 0,0 -0.1,1.27 -0.1,1.27 0,0 -0.4,1.15 -0.4,1.15 0,0 -0.3,1.03 -0.3,1.03 0,0 -0.3,0.9 -0.3,0.9 0,0 -0.2,0.78 -0.2,0.78 0,0 -0.5,0.65 -0.5,0.65 0,0 -0.3,0.53 -0.3,0.53 0,0 -0.5,0.46 -0.5,0.46 0,0 -0.5,0.44 -0.5,0.44 0,0 -0.7,0.41 -0.7,0.41 0,0 -0.8,0.41 -0.8,0.41 0,0 -1,0.37 -1,0.37 0,0 -1,0.36 -1,0.36 0,0 -1,0.33 -1,0.33 0,0 -1.4,0.32 -1.4,0.32 0,0 -2.8,0.57 -2.8,0.57 0,0 -3.3,0.5 -3.3,0.5 0,0 -3.7,0.4 -3.7,0.4 0,0 -4.3,0.33 -4.3,0.33 0,0 -2.5,0.14 -2.5,0.14 0,0 0,8.94 0,8.94 0,0 83.5,0 83.5,0 0,0 0,-8.94 0,-8.94 0,0 -2.7,-0.14 -2.7,-0.14 0,0 -4.2,-0.33 -4.2,-0.33 0,0 -3.6,-0.41 -3.6,-0.41 0,0 -3.4,-0.5 -3.4,-0.5 0,0 -1.3,-0.28 -1.3,-0.28 0,0 -1.5,-0.3 -1.5,-0.3 0,0 -1.2,-0.32 -1.2,-0.32 0,0 -1.1,-0.34 -1.1,-0.34 0,0 -1,-0.36 -1,-0.36 0,0 -1,-0.39 -1,-0.39 0,0 -0.7,-0.4 -0.7,-0.4 0,0 -0.8,-0.43 -0.8,-0.43 0,0 -0.5,-0.44 -0.5,-0.44 0,0 -0.5,-0.47 -0.5,-0.47 0,0 -0.4,-0.54 -0.4,-0.54 0,0 -0.3,-0.66 -0.3,-0.66 0,0 -0.3,-0.78 -0.3,-0.78 0,0 -0.4,-0.91 -0.4,-0.91 0,0 -0.1,-1.02 -0.1,-1.02 0,0 -0.4,-1.15 -0.4,-1.15 0,0 -0.1,-1.27 -0.1,-1.27 0,0 -0.2,-1.4 -0.2,-1.4 0,0 -0.5,-3.15 -0.5,-3.15 0,0 -0.2,-3.64 -0.2,-3.64 0,0 -0.1,-4.13 -0.1,-4.13 0,0 0,-4.62 0,-4.62 0,0 0,-138.62 0,-138.62 0,0 0,-4.62 0,-4.62 0,0 0.1,-4.14 0.1,-4.14 0,0 0.2,-3.64 0.2,-3.64 0,0 0.2,-1.64 0.2,-1.64 0,0 0.5,-2.9 0.5,-2.9 0,0 0.1,-1.27 0.1,-1.27 0,0 0.4,-1.14 0.4,-1.14 0,0 0.1,-1.02 0.1,-1.02 0,0 0.4,-0.9 0.4,-0.9 0,0 0.3,-0.77 0.3,-0.77 0,0 0.3,-0.65 0.3,-0.65 0,0 0.4,-0.53 0.4,-0.53 0,0 0.5,-0.46 0.5,-0.46 0,0 0.5,-0.43 0.5,-0.43 0,0 0.8,-0.42 0.8,-0.42 0,0 0.7,-0.39 0.7,-0.39 0,0 1,-0.38 1,-0.38 0,0 1,-0.35 1,-0.35 0,0 1.1,-0.34 1.1,-0.34 0,0 1.2,-0.31 1.2,-0.31 0,0 2.8,-0.57 2.8,-0.57 0,0 3.4,-0.49 3.4,-0.49 0,0 3.6,-0.4 3.6,-0.4 0,0 4.2,-0.33 4.2,-0.33 0,0 2.7,-0.29 2.7,-0.29 0,0 0,-8.93 0,-8.93 0,0 -83.5,0 -83.5,0 0,0 0,8.93 0,8.93 0,0 2.5,0.29 2.5,0.29 0,0 4.3,0.33 4.3,0.33 0,0 3.7,0.4 3.7,0.4 0,0 3.3,0.49 3.3,0.49 0,0 2.7,0.57 2.7,0.57 0,0 1.3,0.31 1.3,0.31 0,0 1.2,0.34 1.2,0.34 0,0 1,0.35 1,0.35 0,0 0.8,0.38 0.8,0.38 0,0 0.8,0.39 0.8,0.39 0,0 0.7,0.42 0.7,0.42 0,0 0.7,0.43 0.7,0.43 0,0 0.5,0.46 0.5,0.46 0,0 0.3,0.53 0.3,0.53 0,0 0.3,0.65 0.3,0.65 0,0 0.4,0.77 0.4,0.77 0,0 0.3,0.9 0.3,0.9 0,0 0.3,1.02 0.3,1.02 0,0 0.2,1.14 0.2,1.14 0,0 0.3,1.27 0.3,1.27 0,0 0.4,2.9 0.4,2.9 0,0 0.3,1.64 0.3,1.64 0,0 0.2,3.64 0.2,3.64 0,0 0.1,4.14 0.1,4.14 0,0 0,4.62 0,4.62 0,0 0,54.57 0,54.57 0,0 -72.1,0 -72.1,0 0,0 0,-54.57 0,-54.57 0,0 0,-4.62 0,-4.62 0,0 0.1,-4.14 0.1,-4.14 0,0 0.4,-3.64 0.4,-3.64 0,0 0.1,-1.64 0.1,-1.64 0,0 0.4,-2.9 0.4,-2.9 0,0 0.3,-1.27 0.3,-1.27 0,0 0.2,-1.14 0.2,-1.14 0,0 0.3,-1.02 0.3,-1.02 0,0 0.3,-0.9 0.3,-0.9 0,0 0.4,-0.77 0.4,-0.77 0,0 0.3,-0.65 0.3,-0.65 0,0 0.5,-0.53 0.5,-0.53 0,0 0.3,-0.46 0.3,-0.46 0,0 0.7,-0.43 0.7,-0.43 0,0 0.7,-0.42 0.7,-0.42 0,0 0.8,-0.39 0.8,-0.39 0,0 0.8,-0.38 0.8,-0.38 0,0 1,-0.35 1,-0.35 0,0 1.2,-0.34 1.2,-0.34 0,0 1.2,-0.31 1.2,-0.31 0,0 2.8,-0.57 2.8,-0.57 0,0 3.3,-0.49 3.3,-0.49 0,0 3.7,-0.4 3.7,-0.4 0,0 4.2,-0.33 4.2,-0.33 0,0 2.6,-0.29 2.6,-0.29 0,0 0,-8.93 0,-8.93 0,0 -83.6,0 -83.6,0 0,0 0,8.93 0,8.93 0,0 2.9,0.29 2.9,0.29 0,0 4.1,0.33 4.1,0.33 0,0 3.7,0.4 3.7,0.4 0,0 3.3,0.49 3.3,0.49 0,0 2.7,0.57 2.7,0.57 0,0 1.3,0.31 1.3,0.31 0,0 1.1,0.34 1.1,0.34 0,0 1,0.35 1,0.35 0,0 0.9,0.38 0.9,0.38 0,0 0.9,0.39 0.9,0.39 0,0 0.6,0.42 0.6,0.42 0,0 0.6,0.43 0.6,0.43 0,0 0.4,0.46 0.4,0.46 0,0 0.5,0.53 0.5,0.53 0,0 0.3,0.65 0.3,0.65 0,0 0.3,0.77 0.3,0.77 0,0 0.4,0.9 0.4,0.9 0,0 0.3,1.02 0.3,1.02 0,0 0.2,1.14 0.2,1.14 0,0 0.3,1.27 0.3,1.27 0,0 0.3,2.9 0.3,2.9 0,0 0.2,1.64 0.2,1.64 0,0 0.2,3.64 0.2,3.64 0,0 0.1,4.14 0.1,4.14 0,0 0.2,4.62 0.2,4.62 0,0 0,138.62 0,138.62 0,0 -0.2,4.62 -0.2,4.62 0,0 -0.1,4.13 -0.1,4.13 0,0 -0.2,3.64 -0.2,3.64 0,0 -0.3,3.15 -0.3,3.15 0,0 -0.2,1.4 -0.2,1.4 0,0 -0.3,1.27 -0.3,1.27 0,0 -0.2,1.15 -0.2,1.15 0,0 -0.3,1.02 -0.3,1.02 0,0 -0.4,0.91 -0.4,0.91 0,0 -0.3,0.78 -0.3,0.78 0,0 -0.3,0.66 -0.3,0.66 0,0 -0.5,0.54 -0.5,0.54 0,0 -0.4,0.47 -0.4,0.47 0,0 -0.6,0.44 -0.6,0.44 0,0 -0.6,0.43 -0.6,0.43 0,0 -0.9,0.4 -0.9,0.4 0,0 -0.9,0.39 -0.9,0.39 0,0 -1,0.36 -1,0.36 0,0 -1.1,0.34 -1.1,0.34 0,0 -1.3,0.32 -1.3,0.32 0,0 -1.2,0.3 -1.2,0.3 0,0 -1.5,0.28 -1.5,0.28 0,0 -3.3,0.5 -3.3,0.5 0,0 -3.7,0.41 -3.7,0.41 0,0 -4.1,0.33 -4.1,0.33 0,0 -2.9,0.14 -2.9,0.14 0,0 0,8.94 0,8.94 0,0 83.6,0 83.6,0 z"
             stroke="#000000"
             stroke-width="1"
             style="stroke-width:0.559"
             id="path3" />
        </g>
      </g>
    </g>
  </g>
</svg>
